<svg width="20" height="20" viewBox="0 0 20 20" fill="none" xmlns="http://www.w3.org/2000/svg">
<path d="M14.6624 9.10995C15.9976 9.10995 17.0808 8.02752 17.0808 6.69224C17.0808 5.35697 15.9976 4.27454 14.6624 4.27454" stroke="#352E5B" stroke-width="1.5" stroke-linecap="round" stroke-linejoin="round"/>
<path d="M15.7743 11.7373C16.173 11.7648 16.5695 11.8213 16.9598 11.9092C17.5022 12.0154 18.1546 12.2377 18.3868 12.7242C18.535 13.0359 18.535 13.3988 18.3868 13.7112C18.1553 14.1978 17.5022 14.4193 16.9598 14.5308" stroke="#352E5B" stroke-width="1.5" stroke-linecap="round" stroke-linejoin="round"/>
<path d="M5.24171 9.10995C3.90644 9.10995 2.82324 8.02752 2.82324 6.69224C2.82324 5.35697 3.90644 4.27454 5.24171 4.27454" stroke="#352E5B" stroke-width="1.5" stroke-linecap="round" stroke-linejoin="round"/>
<path d="M4.12983 11.7373C3.73108 11.7648 3.33462 11.8213 2.94427 11.9092C2.40191 12.0154 1.74955 12.2377 1.51809 12.7242C1.36913 13.0359 1.36913 13.3988 1.51809 13.7112C1.74879 14.1978 2.40191 14.4193 2.94427 14.5308" stroke="#352E5B" stroke-width="1.5" stroke-linecap="round" stroke-linejoin="round"/>
<path fill-rule="evenodd" clip-rule="evenodd" d="M9.94813 12.2581C12.6538 12.2581 14.9654 12.6675 14.9654 14.306C14.9654 15.9438 12.6691 16.3685 9.94813 16.3685C7.24167 16.3685 4.93091 15.9591 4.93091 14.3206C4.93091 12.682 7.22716 12.2581 9.94813 12.2581Z" stroke="#352E5B" stroke-width="1.5" stroke-linecap="round" stroke-linejoin="round"/>
<path fill-rule="evenodd" clip-rule="evenodd" d="M9.94812 9.9208C8.16367 9.9208 6.73291 8.49004 6.73291 6.70483C6.73291 4.92039 8.16367 3.48962 9.94812 3.48962C11.7326 3.48962 13.1633 4.92039 13.1633 6.70483C13.1633 8.49004 11.7326 9.9208 9.94812 9.9208Z" stroke="#352E5B" stroke-width="1.5" stroke-linecap="round" stroke-linejoin="round"/>
</svg>
