<svg width="118" height="24" viewBox="0 0 118 24" fill="none" xmlns="http://www.w3.org/2000/svg">
<rect x="11.571" width="16.364" height="16.364" transform="rotate(45 11.571 0)" fill="#7D67FF"/>
<rect x="17.4148" y="0.707107" width="15.364" height="15.364" transform="rotate(45 17.4148 0.707107)" stroke="#352E5B"/>
<path d="M43.0818 17.3341C41.9832 17.3341 41.0338 17.0941 40.2338 16.6141C39.4445 16.1234 38.8312 15.4461 38.3938 14.5821C37.9565 13.7074 37.7378 12.6941 37.7378 11.5421C37.7378 10.4008 37.9565 9.39809 38.3938 8.53409C38.8312 7.65942 39.4445 6.97676 40.2338 6.48609C41.0338 5.99542 41.9832 5.75009 43.0818 5.75009C44.3618 5.75009 45.4018 6.05942 46.2018 6.67809C47.0125 7.28609 47.5298 8.13942 47.7538 9.23809H46.2658C46.0952 8.54476 45.7432 7.99009 45.2098 7.57409C44.6872 7.14742 43.9778 6.93409 43.0818 6.93409C42.2818 6.93409 41.5832 7.12076 40.9858 7.49409C40.3885 7.85676 39.9245 8.38476 39.5938 9.07809C39.2738 9.76076 39.1138 10.5821 39.1138 11.5421C39.1138 12.5021 39.2738 13.3288 39.5938 14.0221C39.9245 14.7048 40.3885 15.2328 40.9858 15.6061C41.5832 15.9688 42.2818 16.1501 43.0818 16.1501C43.9778 16.1501 44.6872 15.9474 45.2098 15.5421C45.7432 15.1261 46.0952 14.5768 46.2658 13.8941H47.7538C47.5298 14.9714 47.0125 15.8141 46.2018 16.4221C45.4018 17.0301 44.3618 17.3341 43.0818 17.3341ZM49.6055 17.1421V9.20609H50.8215L50.9335 10.7261C51.1788 10.2034 51.5521 9.78742 52.0535 9.47809C52.5548 9.16876 53.1735 9.01409 53.9095 9.01409V10.4221H53.5415C53.0721 10.4221 52.6401 10.5074 52.2455 10.6781C51.8508 10.8381 51.5361 11.1154 51.3015 11.5101C51.0668 11.9048 50.9495 12.4488 50.9495 13.1421V17.1421H49.6055ZM56.282 20.6621L58.25 16.3741H57.786L54.634 9.20609H56.09L58.714 15.3821L61.498 9.20609H62.89L57.69 20.6621H56.282ZM64.3086 20.6621V9.20609H65.5246L65.6526 10.5181C65.9086 10.1341 66.2713 9.78742 66.7406 9.47809C67.2206 9.16876 67.8286 9.01409 68.5646 9.01409C69.3539 9.01409 70.0419 9.19542 70.6286 9.55809C71.2153 9.92076 71.6686 10.4168 71.9886 11.0461C72.3193 11.6754 72.4846 12.3901 72.4846 13.1901C72.4846 13.9901 72.3193 14.7048 71.9886 15.3341C71.6686 15.9528 71.2099 16.4434 70.6126 16.8061C70.0259 17.1581 69.3379 17.3341 68.5486 17.3341C67.8979 17.3341 67.3166 17.2008 66.8046 16.9341C66.3033 16.6674 65.9193 16.2941 65.6526 15.8141V20.6621H64.3086ZM68.4046 16.1661C68.9379 16.1661 69.4073 16.0434 69.8126 15.7981C70.2179 15.5421 70.5379 15.1901 70.7726 14.7421C71.0073 14.2941 71.1246 13.7714 71.1246 13.1741C71.1246 12.5768 71.0073 12.0541 70.7726 11.6061C70.5379 11.1581 70.2179 10.8114 69.8126 10.5661C69.4073 10.3101 68.9379 10.1821 68.4046 10.1821C67.8713 10.1821 67.4019 10.3101 66.9966 10.5661C66.5913 10.8114 66.2713 11.1581 66.0366 11.6061C65.8019 12.0541 65.6846 12.5768 65.6846 13.1741C65.6846 13.7714 65.8019 14.2941 66.0366 14.7421C66.2713 15.1901 66.5913 15.5421 66.9966 15.7981C67.4019 16.0434 67.8713 16.1661 68.4046 16.1661ZM77.179 17.1421C76.4536 17.1421 75.883 16.9661 75.467 16.6141C75.051 16.2621 74.843 15.6274 74.843 14.7101V10.3421H73.467V9.20609H74.843L75.019 7.30209H76.187V9.20609H78.523V10.3421H76.187V14.7101C76.187 15.2114 76.2883 15.5528 76.491 15.7341C76.6936 15.9048 77.051 15.9901 77.563 15.9901H78.395V17.1421H77.179ZM83.6277 17.3341C82.881 17.3341 82.209 17.1634 81.6117 16.8221C81.0144 16.4808 80.5397 16.0008 80.1877 15.3821C79.8464 14.7528 79.6757 14.0168 79.6757 13.1741C79.6757 12.3314 79.8517 11.6008 80.2037 10.9821C80.5557 10.3528 81.0304 9.86742 81.6277 9.52609C82.2357 9.18476 82.913 9.01409 83.6597 9.01409C84.4064 9.01409 85.0784 9.18476 85.6757 9.52609C86.273 9.86742 86.7424 10.3528 87.0837 10.9821C87.4357 11.6008 87.6117 12.3314 87.6117 13.1741C87.6117 14.0168 87.4357 14.7528 87.0837 15.3821C86.7317 16.0008 86.2517 16.4808 85.6437 16.8221C85.0464 17.1634 84.3744 17.3341 83.6277 17.3341ZM83.6277 16.1821C84.0864 16.1821 84.513 16.0701 84.9077 15.8461C85.3024 15.6221 85.6224 15.2861 85.8677 14.8381C86.113 14.3901 86.2357 13.8354 86.2357 13.1741C86.2357 12.5128 86.113 11.9581 85.8677 11.5101C85.633 11.0621 85.3184 10.7261 84.9237 10.5021C84.529 10.2781 84.1077 10.1661 83.6597 10.1661C83.201 10.1661 82.7744 10.2781 82.3797 10.5021C81.985 10.7261 81.665 11.0621 81.4197 11.5101C81.1744 11.9581 81.0517 12.5128 81.0517 13.1741C81.0517 13.8354 81.1744 14.3901 81.4197 14.8381C81.665 15.2861 81.9797 15.6221 82.3637 15.8461C82.7584 16.0701 83.1797 16.1821 83.6277 16.1821ZM89.4645 17.1421V5.94209H91.5125V17.1421H89.4645ZM93.6352 17.1421V9.20609H95.4432L95.6032 10.5501C95.8485 10.0808 96.2005 9.70742 96.6592 9.43009C97.1285 9.15276 97.6779 9.01409 98.3072 9.01409C99.2885 9.01409 100.051 9.32342 100.595 9.94209C101.139 10.5608 101.411 11.4674 101.411 12.6621V17.1421H99.3632V12.8541C99.3632 12.1714 99.2245 11.6488 98.9472 11.2861C98.6699 10.9234 98.2379 10.7421 97.6512 10.7421C97.0752 10.7421 96.6005 10.9448 96.2272 11.3501C95.8645 11.7554 95.6832 12.3208 95.6832 13.0461V17.1421H93.6352ZM103.738 17.1421V10.9181H102.65V9.20609H103.738V8.27809C103.738 7.31809 103.978 6.63542 104.458 6.23009C104.948 5.82476 105.61 5.62209 106.442 5.62209H107.322V7.36609H106.762C106.41 7.36609 106.159 7.43542 106.01 7.57409C105.86 7.71276 105.786 7.94742 105.786 8.27809V9.20609H107.498V10.9181H105.786V17.1421H103.738ZM112.615 17.3341C111.847 17.3341 111.154 17.1581 110.535 16.8061C109.927 16.4541 109.442 15.9688 109.079 15.3501C108.727 14.7208 108.551 13.9954 108.551 13.1741C108.551 12.3528 108.732 11.6328 109.095 11.0141C109.458 10.3848 109.943 9.89409 110.551 9.54209C111.17 9.19009 111.863 9.01409 112.631 9.01409C113.388 9.01409 114.071 9.19009 114.679 9.54209C115.298 9.89409 115.783 10.3848 116.135 11.0141C116.498 11.6328 116.679 12.3528 116.679 13.1741C116.679 13.9954 116.498 14.7208 116.135 15.3501C115.783 15.9688 115.298 16.4541 114.679 16.8061C114.06 17.1581 113.372 17.3341 112.615 17.3341ZM112.615 15.5581C113.148 15.5581 113.612 15.3608 114.007 14.9661C114.402 14.5608 114.599 13.9634 114.599 13.1741C114.599 12.3848 114.402 11.7928 114.007 11.3981C113.612 10.9928 113.154 10.7901 112.631 10.7901C112.087 10.7901 111.618 10.9928 111.223 11.3981C110.839 11.7928 110.647 12.3848 110.647 13.1741C110.647 13.9634 110.839 14.5608 111.223 14.9661C111.618 15.3608 112.082 15.5581 112.615 15.5581Z" fill="black"/>
</svg>
