<svg width="269" height="158" viewBox="0 0 269 158" fill="none" xmlns="http://www.w3.org/2000/svg">
<rect x="0.5" y="0.5" width="268" height="157" rx="9.5" fill="#F8F7FF" stroke="#7D67FF"/>
<path d="M160.695 79.5463C156.702 81.5536 151.901 81.219 150 80.8009V113H203H256V58.4287C245.543 35.3457 234.372 45.0473 230.094 52.7834L222.726 65.5376C219.478 71.6708 209.465 81.8881 195.395 73.6919C181.325 65.4958 173.529 68.7436 171.39 71.392C169.489 73.2738 164.688 77.5391 160.695 79.5463Z" fill="url(#paint0_linear_403_88)"/>
<path d="M151.14 80.6838C153 81.1006 157.698 81.4341 161.605 79.4333C165.512 77.4324 170.209 73.1807 172.07 71.3049C174.163 68.6649 181.791 65.4274 195.558 73.5975C209.326 81.7676 219.124 71.5828 222.302 65.4691L229.511 52.7555C233.698 45.0439 244.628 35.3732 254.86 58.3828" stroke="#7D67FF" stroke-width="2" stroke-linecap="round"/>
<defs>
<linearGradient id="paint0_linear_403_88" x1="220.5" y1="113" x2="220.127" y2="52.4992" gradientUnits="userSpaceOnUse">
<stop offset="0.0001" stop-color="#F8F7FF"/>
<stop offset="1" stop-color="#9A89FF"/>
</linearGradient>
</defs>
</svg>
