<svg width="18" height="20" viewBox="0 0 18 20" fill="none" xmlns="http://www.w3.org/2000/svg">
<path d="M6.63105 17.3095V14.7539C6.63104 14.1038 7.16097 13.5756 7.81755 13.5713H10.2226C10.8823 13.5713 11.4171 14.1007 11.4171 14.7539V14.7539V17.3174C11.417 17.8693 11.8619 18.3204 12.4192 18.3333H14.0226C15.621 18.3333 16.9167 17.0505 16.9167 15.4682V15.4682V8.19816C16.9082 7.57565 16.6129 6.99108 16.115 6.61082L10.6315 2.23771C9.67082 1.47626 8.30521 1.47626 7.34456 2.23771L1.88506 6.61876C1.38526 6.99748 1.08953 7.58301 1.08337 8.20609V15.4682C1.08337 17.0505 2.3791 18.3333 3.97747 18.3333H5.58084C6.152 18.3333 6.61502 17.8749 6.61502 17.3095V17.3095" stroke="#A5A2B8" stroke-width="1.5" stroke-linecap="round" stroke-linejoin="round"/>
</svg>
