<svg width="20" height="16" viewBox="0 0 20 16" fill="none" xmlns="http://www.w3.org/2000/svg">
<path d="M14.6624 7.10995C15.9976 7.10995 17.0808 6.02752 17.0808 4.69224C17.0808 3.35697 15.9976 2.27454 14.6624 2.27454" stroke="#A5A2B8" stroke-width="1.5" stroke-linecap="round" stroke-linejoin="round"/>
<path d="M15.7743 9.7373C16.173 9.7648 16.5695 9.82133 16.9598 9.90918C17.5022 10.0154 18.1546 10.2377 18.3868 10.7242C18.535 11.0359 18.535 11.3988 18.3868 11.7112C18.1553 12.1978 17.5022 12.4193 16.9598 12.5308" stroke="#A5A2B8" stroke-width="1.5" stroke-linecap="round" stroke-linejoin="round"/>
<path d="M5.24171 7.10995C3.90644 7.10995 2.82324 6.02752 2.82324 4.69224C2.82324 3.35697 3.90644 2.27454 5.24171 2.27454" stroke="#A5A2B8" stroke-width="1.5" stroke-linecap="round" stroke-linejoin="round"/>
<path d="M4.12983 9.7373C3.73108 9.7648 3.33462 9.82133 2.94427 9.90918C2.40191 10.0154 1.74955 10.2377 1.51809 10.7242C1.36913 11.0359 1.36913 11.3988 1.51809 11.7112C1.74879 12.1978 2.40191 12.4193 2.94427 12.5308" stroke="#A5A2B8" stroke-width="1.5" stroke-linecap="round" stroke-linejoin="round"/>
<path fill-rule="evenodd" clip-rule="evenodd" d="M9.94813 10.2581C12.6538 10.2581 14.9654 10.6675 14.9654 12.306C14.9654 13.9438 12.6691 14.3685 9.94813 14.3685C7.24167 14.3685 4.93091 13.9591 4.93091 12.3206C4.93091 10.682 7.22716 10.2581 9.94813 10.2581Z" stroke="#A5A2B8" stroke-width="1.5" stroke-linecap="round" stroke-linejoin="round"/>
<path fill-rule="evenodd" clip-rule="evenodd" d="M9.94812 7.9208C8.16367 7.9208 6.73291 6.49004 6.73291 4.70483C6.73291 2.92039 8.16367 1.48962 9.94812 1.48962C11.7326 1.48962 13.1633 2.92039 13.1633 4.70483C13.1633 6.49004 11.7326 7.9208 9.94812 7.9208Z" stroke="#A5A2B8" stroke-width="1.5" stroke-linecap="round" stroke-linejoin="round"/>
</svg>
