<svg width="8" height="13" viewBox="0 0 8 13" fill="none" xmlns="http://www.w3.org/2000/svg">
<path d="M3.64645 12.3536C3.84171 12.5488 4.15829 12.5488 4.35355 12.3536L7.53553 9.17157C7.7308 8.97631 7.7308 8.65973 7.53553 8.46447C7.34027 8.2692 7.02369 8.2692 6.82843 8.46447L4 11.2929L1.17157 8.46447C0.976311 8.2692 0.659728 8.2692 0.464466 8.46447C0.269204 8.65973 0.269204 8.97631 0.464466 9.17157L3.64645 12.3536ZM3.5 6L3.5 12L4.5 12L4.5 6L3.5 6Z" fill="#7D67FF"/>
<path d="M4.35355 0.646447C4.15829 0.451184 3.84171 0.451184 3.64645 0.646447L0.464466 3.82843C0.269204 4.02369 0.269204 4.34027 0.464466 4.53553C0.659728 4.7308 0.976311 4.7308 1.17157 4.53553L4 1.70711L6.82843 4.53553C7.02369 4.7308 7.34027 4.7308 7.53553 4.53553C7.7308 4.34027 7.7308 4.02369 7.53553 3.82843L4.35355 0.646447ZM4.5 6L4.5 1L3.5 1L3.5 6L4.5 6Z" fill="#7D67FF"/>
</svg>
