<svg width="269" height="158" viewBox="0 0 269 158" fill="none" xmlns="http://www.w3.org/2000/svg">
<rect width="269" height="158" rx="10" fill="url(#paint0_linear_502_93)"/>
<path d="M160.695 75.5463C156.702 77.5536 151.901 77.219 150 76.8009V109H203H256V54.4287C245.543 31.3457 234.372 41.0473 230.094 48.7834L222.726 61.5376C219.478 67.6708 209.465 77.8881 195.395 69.6919C181.325 61.4958 173.529 64.7436 171.39 67.392C169.489 69.2738 164.688 73.5391 160.695 75.5463Z" fill="url(#paint1_linear_502_93)"/>
<path d="M151.14 76.6838C153 77.1006 157.698 77.4341 161.605 75.4333C165.512 73.4324 170.209 69.1807 172.07 67.3049C174.163 64.6649 181.791 61.4274 195.558 69.5975C209.326 77.7676 219.124 67.5828 222.302 61.4691L229.511 48.7555C233.698 41.0439 244.628 31.3732 254.86 54.3828" stroke="white" stroke-width="2" stroke-linecap="round"/>
<defs>
<linearGradient id="paint0_linear_502_93" x1="175" y1="121" x2="6.50002" y2="1.99997" gradientUnits="userSpaceOnUse">
<stop stop-color="#7D67FF"/>
<stop offset="1" stop-color="#9381FF" stop-opacity="0.75"/>
</linearGradient>
<linearGradient id="paint1_linear_502_93" x1="192.742" y1="-11" x2="193.603" y2="122.002" gradientUnits="userSpaceOnUse">
<stop stop-color="#ECE9FF"/>
<stop offset="0.0001" stop-color="#EDEAFF"/>
<stop offset="0.847197" stop-color="white" stop-opacity="0"/>
</linearGradient>
</defs>
</svg>
