<svg width="58" height="50" viewBox="0 0 58 50" fill="none" xmlns="http://www.w3.org/2000/svg">
<path d="M43.1876 0.00012207C36.4225 11.7254 32.6847 17.5726 28.916 17.5726C25.1474 17.5726 21.4096 11.7254 14.6754 0.00012207C21.4096 11.7254 24.6222 17.9129 22.7379 21.1614C20.8535 24.4098 13.9031 24.7501 0.403809 24.7501C14.3974 24.7501 21.3478 25.0904 22.9232 28.6792C24.406 32.0204 21.1933 38.177 14.6754 49.5001C21.4405 37.7748 25.1783 31.9276 28.9469 31.9276C32.7156 31.9276 36.4534 37.7748 43.2185 49.5001C36.0518 37.0323 32.901 30.8448 35.5576 27.7511C37.9053 25.0286 44.8248 24.7501 57.4901 24.7501C43.2185 24.7501 36.2681 24.3789 34.878 20.5736C33.6114 17.1704 36.8241 11.0448 43.1876 0.00012207Z" fill="#F1BCFF"/>
</svg>
